<svg xmlns="http://www.w3.org/2000/svg" width="19" height="19" viewBox="0 0 19 19">
  <g id="Сгруппировать_285" data-name="Сгруппировать 285" transform="translate(-21481 167)">
    <path id="ChartLine" d="M21.268,18.636H4.461v-3.1l5.151-4.205,5.372,3.759a.772.772,0,0,0,.92-.032l5.846-4.773a.691.691,0,0,0,.174-.211.64.64,0,0,0,.038-.521.672.672,0,0,0-.142-.231.728.728,0,0,0-.226-.162.779.779,0,0,0-.558-.034.745.745,0,0,0-.247.133l-5.4,4.409L10.015,9.909a.772.772,0,0,0-.92.032L4.461,13.725V5.682A.66.66,0,0,0,4.247,5.2a.768.768,0,0,0-1.033,0A.659.659,0,0,0,3,5.682V19.318a.66.66,0,0,0,.214.482.758.758,0,0,0,.517.2H21.268a.758.758,0,0,0,.517-.2.65.65,0,0,0,0-.964A.758.758,0,0,0,21.268,18.636Z" transform="translate(21478 -170)" fill="#fff"/>
    <rect id="Прямоугольник_127" data-name="Прямоугольник 127" width="19" height="19" transform="translate(21481 -167)" fill="none"/>
  </g>
</svg>
