<svg xmlns="http://www.w3.org/2000/svg" width="19" height="19" viewBox="0 0 19 19">
  <g id="Сгруппировать_149" data-name="Сгруппировать 149" transform="translate(-499 -432)">
    <path id="ShoppingBagOpen" d="M20.538,5H4.462A1.46,1.46,0,0,0,3,6.455V19.545A1.46,1.46,0,0,0,4.462,21H20.538A1.46,1.46,0,0,0,22,19.545V6.455A1.46,1.46,0,0,0,20.538,5ZM12.5,15.909a4.379,4.379,0,0,1-4.385-4.364.731.731,0,0,1,1.462,0,2.923,2.923,0,0,0,5.846,0,.731.731,0,0,1,1.462,0A4.379,4.379,0,0,1,12.5,15.909Zm-8.038-8V6.455H20.538V7.909Z" transform="translate(496 429)" fill="#fff"/>
    <rect id="Прямоугольник_50" data-name="Прямоугольник 50" width="19" height="19" transform="translate(499 432)" fill="none"/>
  </g>
</svg>
