<svg xmlns="http://www.w3.org/2000/svg" width="19.001" height="19" viewBox="0 0 19.001 19">
  <g id="Сгруппировать_303" data-name="Сгруппировать 303" transform="translate(-356 -1248)">
    <path id="Table" d="M21.27,6H3.732a.715.715,0,0,0-.28.057.73.73,0,0,0-.237.163.752.752,0,0,0-.158.243A.767.767,0,0,0,3,6.75V19.5a1.522,1.522,0,0,0,.429,1.06A1.444,1.444,0,0,0,4.462,21H20.539a1.444,1.444,0,0,0,1.033-.44A1.522,1.522,0,0,0,22,19.5V6.75a.767.767,0,0,0-.056-.287.751.751,0,0,0-.158-.243.73.73,0,0,0-.237-.163A.714.714,0,0,0,21.27,6ZM4.462,12H8.116v3H4.462Zm5.115,0H20.54v3H9.578ZM4.462,16.5H8.116v3H4.462Zm16.077,3H9.578v-3H20.54v3Z" transform="translate(353 1244)" fill="#fff"/>
    <rect id="Прямоугольник_154" data-name="Прямоугольник 154" width="19" height="19" transform="translate(356 1248)" fill="none"/>
  </g>
</svg>
