<svg xmlns="http://www.w3.org/2000/svg" width="19" height="19" viewBox="0 0 19 19">
  <g id="Сгруппировать_41" data-name="Сгруппировать 41" transform="translate(-906 -308)">
    <g id="Ethereum_logo_2014" transform="translate(910 308)">
      <path id="Контур_25" data-name="Контур 25" d="M125.295,0l-.129.437V13.12l.129.128,5.887-3.48Z" transform="translate(-119.185)" fill="#ed1b7a"/>
      <path id="Контур_26" data-name="Контур 26" d="M5.887,0,0,9.768l5.887,3.48V0Z" fill="#f779aa"/>
      <path id="Контур_27" data-name="Контур 27" d="M126.459,240.065l-.072.088v4.518l.072.212,5.891-8.3Z" transform="translate(-120.349 -225.882)" fill="#ed1b7a"/>
      <path id="Контур_28" data-name="Контур 28" d="M5.887,244.881v-4.818L0,236.585Z" transform="translate(0 -225.881)" fill="#f779aa"/>
      <path id="Контур_29" data-name="Контур 29" d="M127.961,160.314l5.887-3.48-5.887-2.676Z" transform="translate(-121.852 -147.165)" fill="#710234"/>
      <path id="Контур_30" data-name="Контур 30" d="M0,156.835l5.887,3.48v-6.156Z" transform="translate(-0.001 -147.165)" fill="#ed1b7a"/>
    </g>
    <rect id="Прямоугольник_43" data-name="Прямоугольник 43" width="19" height="19" transform="translate(906 308)" fill="none"/>
  </g>
</svg>
