<svg xmlns="http://www.w3.org/2000/svg" width="19" height="19" viewBox="0 0 19 19">
  <g id="Сгруппировать_305" data-name="Сгруппировать 305" transform="translate(-331 -1323)">
    <path id="TagSimple" d="M21.886,12.612l-3.87-5.988a1.37,1.37,0,0,0-.489-.458A1.322,1.322,0,0,0,16.887,6H4.357a1.338,1.338,0,0,0-.959.411A1.424,1.424,0,0,0,3,7.4V18.6a1.424,1.424,0,0,0,.4.989A1.338,1.338,0,0,0,4.357,20h12.53a1.321,1.321,0,0,0,.641-.165,1.371,1.371,0,0,0,.489-.458h0l3.87-5.988a.718.718,0,0,0,0-.777Z" transform="translate(328 1320)" fill="#fff"/>
    <rect id="Прямоугольник_155" data-name="Прямоугольник 155" width="19" height="19" transform="translate(331 1323)" fill="none"/>
  </g>
</svg>
