<svg xmlns="http://www.w3.org/2000/svg" width="19" height="19.005" viewBox="0 0 19 19.005">
  <g id="Сгруппировать_387" data-name="Сгруппировать 387" transform="translate(-823 -1440)">
    <path id="TrashSimple" d="M20.52,5.978a.743.743,0,0,1-.207.517.7.7,0,0,1-.5.214H19.1V19.866a1.486,1.486,0,0,1-.415,1.034,1.4,1.4,0,0,1-1,.428H6.353a1.4,1.4,0,0,1-1-.428,1.486,1.486,0,0,1-.415-1.034V6.708H4.228a.7.7,0,0,1-.5-.214.748.748,0,0,1,0-1.034.7.7,0,0,1,.5-.214H19.811a.7.7,0,0,1,.5.214A.743.743,0,0,1,20.52,5.978ZM8.478,3.785h7.083a.7.7,0,0,0,.5-.214.748.748,0,0,0,0-1.034.7.7,0,0,0-.5-.214H8.478a.7.7,0,0,0-.5.214.748.748,0,0,0,0,1.034.7.7,0,0,0,.5.214Z" transform="translate(820.48 1437.678)" fill="#fb3a50"/>
    <rect id="Прямоугольник_206" data-name="Прямоугольник 206" width="19" height="19" transform="translate(823 1440)" fill="none"/>
  </g>
</svg>
