<svg xmlns="http://www.w3.org/2000/svg" width="62" height="64" viewBox="0 0 62 64">
  <path id="ShieldCheck" d="M60.834,4H9.167A5.193,5.193,0,0,0,5.515,5.5,5.117,5.117,0,0,0,4,9.129V27.935c0,28.678,24.484,38.187,29.4,39.8a5.027,5.027,0,0,0,3.209,0C41.514,66.122,66,56.615,66,27.935V9.129A5.116,5.116,0,0,0,64.485,5.5,5.192,5.192,0,0,0,60.834,4ZM50.992,26.372,32.046,44.323a2.6,2.6,0,0,1-3.567,0l-9.47-8.976a2.559,2.559,0,0,1,.738-4.2,2.6,2.6,0,0,1,2.829.492l7.687,7.285L47.425,22.66a2.588,2.588,0,0,1,4.2.929,2.554,2.554,0,0,1-.628,2.782Z" transform="translate(-4 -4)" fill="#64ff8e"/>
</svg>
