<svg xmlns="http://www.w3.org/2000/svg" width="19" height="19" viewBox="0 0 19 19">
  <g id="Сгруппировать_4626" data-name="Сгруппировать 4626" transform="translate(16721 -448)">
    <g id="polygon-matic-logo" transform="translate(-16798.227 453.183)">
      <path id="Контур_6780" data-name="Контур 6780" d="M14.386,5.1a1.246,1.246,0,0,0-1.191,0L10.418,6.761,8.533,7.82,5.8,9.485a1.246,1.246,0,0,1-1.191,0L2.48,8.173a1.234,1.234,0,0,1-.6-1.059V4.591a1.249,1.249,0,0,1,.6-1.059L4.614,2.271a1.246,1.246,0,0,1,1.191,0L7.937,3.582a1.234,1.234,0,0,1,.6,1.059V6.307L10.418,5.2V3.482a1.249,1.249,0,0,0-.6-1.059L5.854.051a1.246,1.246,0,0,0-1.191,0L.6,2.473A1.112,1.112,0,0,0,0,3.482V8.223A1.249,1.249,0,0,0,.6,9.283l4.018,2.371a1.246,1.246,0,0,0,1.191,0l2.728-1.614,1.885-1.11,2.728-1.614a1.246,1.246,0,0,1,1.191,0L16.47,8.577a1.234,1.234,0,0,1,.6,1.059v2.522a1.249,1.249,0,0,1-.6,1.059l-2.084,1.261a1.246,1.246,0,0,1-1.191,0l-2.133-1.261a1.234,1.234,0,0,1-.6-1.059V10.544l-1.885,1.11v1.665a1.249,1.249,0,0,0,.6,1.059L13.2,16.749a1.246,1.246,0,0,0,1.191,0L18.4,14.378a1.234,1.234,0,0,0,.6-1.059V8.526a1.249,1.249,0,0,0-.6-1.059Z" transform="translate(77.227 -4.083)" fill="#8247e5"/>
    </g>
    <rect id="Прямоугольник_1912" data-name="Прямоугольник 1912" width="19" height="19" transform="translate(-16721 448)" fill="none"/>
  </g>
</svg>
