
<svg xmlns="http://www.w3.org/2000/svg" width="31" height="31" viewBox="0 0 31 31">
  <g id="Сгруппировать_41" data-name="Сгруппировать 41" transform="translate(-905.866 -308)">
    <g id="Ethereum_logo_2014" transform="translate(912.498 308)">
      <path id="Контур_25" data-name="Контур 25" d="M125.375,0l-.209.71v20.6l.209.209,9.564-5.653Z" transform="translate(-115.45)" fill="#343434"/>
      <path id="Контур_26" data-name="Контур 26" d="M9.564,0,0,15.869l9.564,5.653V0Z" fill="#8c8c8c"/>
      <path id="Контур_27" data-name="Контур 27" d="M126.5,242.237l-.118.143v7.339l.118.344,9.569-13.477Z" transform="translate(-116.579 -219.197)" fill="#3c3c3b"/>
      <path id="Контур_28" data-name="Контур 28" d="M9.564,250.062v-7.827L0,236.585Z" transform="translate(0 -219.196)" fill="#8c8c8c"/>
      <path id="Контур_29" data-name="Контур 29" d="M127.961,164.159l9.564-5.653-9.564-4.347Z" transform="translate(-118.036 -142.797)" fill="#141414"/>
      <path id="Контур_30" data-name="Контур 30" d="M0,158.506l9.564,5.653v-10Z" transform="translate(-0.001 -142.797)" fill="#393939"/>
    </g>
    <rect id="Прямоугольник_43" data-name="Прямоугольник 43" width="31" height="31" transform="translate(905.866 308)" fill="none"/>
  </g>
</svg>
