<svg xmlns="http://www.w3.org/2000/svg" width="19" height="19" viewBox="0 0 19 19">
  <g id="InstagramLogo" transform="translate(-3.5 -3.5)">
    <path id="Контур_39" data-name="Контур 39" d="M15.04,18.08A3.04,3.04,0,1,0,12,15.04,3.04,3.04,0,0,0,15.04,18.08Z" transform="translate(-2.04 -2.04)" fill="rgba(255,255,255,0.3)"/>
    <path id="Контур_40" data-name="Контур 40" d="M17.18,3.5H8.82A5.326,5.326,0,0,0,3.5,8.82v8.36A5.326,5.326,0,0,0,8.82,22.5h8.36a5.326,5.326,0,0,0,5.32-5.32V8.82A5.326,5.326,0,0,0,17.18,3.5ZM13,17.56a4.565,4.565,0,1,1,3.223-1.337A4.56,4.56,0,0,1,13,17.56ZM17.94,9.2a1.14,1.14,0,1,1,.806-.334A1.14,1.14,0,0,1,17.94,9.2Z" transform="translate(0 0)" fill="rgba(255,255,255,0.3)"/>
  </g>
</svg>
