<svg xmlns="http://www.w3.org/2000/svg" width="19.001" height="19" viewBox="0 0 19.001 19">
  <g id="Сгруппировать_156" data-name="Сгруппировать 156" transform="translate(-22003.999 -1133)">
    <path id="TwitterLogo" d="M20.12,5.734a.638.638,0,0,0-.321-.22.659.659,0,0,0-.393,0,9.906,9.906,0,0,1-2.422.464A3.823,3.823,0,0,0,15.1,4.622a3.955,3.955,0,0,0-2.353-.038,3.835,3.835,0,0,0-1.932,1.3,3.631,3.631,0,0,0-.783,2.147A9.728,9.728,0,0,1,6.55,6.61,9.392,9.392,0,0,1,3.911,4a.633.633,0,0,0-.275-.227.658.658,0,0,0-.358-.047.648.648,0,0,0-.327.149.615.615,0,0,0-.191.3,10.186,10.186,0,0,0,.114,5.98A10.509,10.509,0,0,0,6.341,15.1a9.789,9.789,0,0,1-4.464,1.142.652.652,0,0,0-.387.134.617.617,0,0,0-.223.334.6.6,0,0,0,.033.4.626.626,0,0,0,.276.295,11.181,11.181,0,0,0,10.464.029,10.723,10.723,0,0,0,3.947-3.567A10.268,10.268,0,0,0,17.67,8.9a10.64,10.64,0,0,0,2.462-2.44.6.6,0,0,0-.012-.724Z" transform="translate(22002.752 1131.284)" fill="rgba(255,255,255,0.3)"/>
    <rect id="Прямоугольник_56" data-name="Прямоугольник 56" width="19" height="19" transform="translate(22004 1133)" fill="none"/>
  </g>
</svg>
