<svg xmlns="http://www.w3.org/2000/svg" width="58.589" height="43.941" viewBox="0 0 58.589 43.941">
  <path id="Icon_material-more" data-name="Icon material-more" d="M53.706,4.5H17.088a4.6,4.6,0,0,0-3.881,2.148L0,26.471l13.207,19.8a4.918,4.918,0,0,0,4.052,2.173H53.706a4.9,4.9,0,0,0,4.882-4.882V9.382A4.9,4.9,0,0,0,53.706,4.5ZM21.971,30.132a3.662,3.662,0,1,1,3.662-3.662A3.657,3.657,0,0,1,21.971,30.132Zm12.206,0a3.662,3.662,0,1,1,3.662-3.662A3.657,3.657,0,0,1,34.177,30.132Zm12.206,0a3.662,3.662,0,1,1,3.662-3.662A3.657,3.657,0,0,1,46.383,30.132Z" transform="translate(0 -4.5)" fill="#ff3856"/>
</svg>
