<svg id="prefix__authereum_logo" xmlns="http://www.w3.org/2000/svg" width="24.99" height="31.227" viewBox="0 0 24.99 31.227">
  <g id="prefix__Group" transform="translate(0 0)">
    <path id="prefix__Shape" d="M5.235-88.834C3.272-88.2,1.3-87.563.831-87.416L0-87.143V-81.3c0,3.5.026,6.134.065,6.571a14.463,14.463,0,0,0,3.782,8.373c.5.55,8.387,7.512,8.612,7.6.089.033,7.028-5.955,8.167-7.054A14.843,14.843,0,0,0,24.7-73.16c.288-1.4.308-1.927.288-8.154l-.02-5.856-4.443-1.419c-2.441-.775-4.45-1.4-4.461-1.4s.357.749.824,1.643l.844,1.623,1.263.41c.693.225,1.741.563,2.33.749l1.071.338-.026,5.379c-.02,5.167-.026,5.405-.157,6.008a11.815,11.815,0,0,1-3.1,5.829c-.3.311-1.833,1.683-3.4,3.041s-2.925,2.55-3.023,2.643l-.17.159-3-2.616c-3.671-3.206-4.22-3.747-5.1-5.114a11.58,11.58,0,0,1-1.472-3.358c-.294-1.192-.32-1.636-.32-6.949v-5.014l.936-.3c.51-.166,1.558-.5,2.32-.749s1.387-.47,1.387-.49.367-.749.818-1.616.818-1.6.818-1.606a30.235,30.235,0,0,0-3.67,1.141Z" transform="translate(0 89.986)" fill="#ff4c2f"/>
    <path id="Shape" d="M21.967-89.785c-.059.12-1.708,3.3-3.658,7.075l-3.547,6.856.053.557a8.216,8.216,0,0,0,1.217,3.438c.242.4.314.47.379.4.039-.046,1.338-2.524,2.879-5.5s2.814-5.412,2.84-5.412S23.445-79.969,25-77.025s2.855,5.4,2.9,5.465c.065.112.079.106.183-.033a8.293,8.293,0,0,0,1.387-3.676l.079-.662-3.717-7.018c-2.041-3.855-3.722-7.027-3.737-7.034s-.065.074-.13.2Z" transform="translate(-9.638 89.983)" fill="#ff4c2f"/>
    <path id="Shape-2" data-name="Shape" d="M27.346-47.639,25.546-44l1.014.892c.556.49,1.374,1.2,1.813,1.569l.8.675.178-.145c.1-.079.909-.788,1.793-1.577l1.617-1.428-1.793-3.63c-.988-1.994-1.8-3.63-1.813-3.63S28.333-49.642,27.346-47.639Z" transform="translate(-16.679 64.712)" fill="#ff4c2f"/>
  </g>
</svg>
