
<svg id="Group_336" data-name="Group 336" xmlns="http://www.w3.org/2000/svg" xmlns:xlink="http://www.w3.org/1999/xlink" width="68.73" height="68.73" viewBox="0 0 68.73 68.73">
  <defs>
    <linearGradient id="linear-gradient" x1="0.5" y1="1" x2="0.5" gradientUnits="objectBoundingBox">
      <stop offset="0" stop-color="#1447ea"/>
      <stop offset="1" stop-color="#2b65fb"/>
    </linearGradient>
  </defs>
  <ellipse id="Ellipse_10" data-name="Ellipse 10" cx="27.048" cy="27.048" rx="27.048" ry="27.048" transform="translate(6.176 5.554)" fill="#fff"/>
  <g id="Layer_5" transform="translate(0 0)">
    <g id="Group_335" data-name="Group 335" transform="translate(0)">
      <path id="Path_350" data-name="Path 350" d="M35.365,1A34.365,34.365,0,1,0,69.73,35.365,34.347,34.347,0,0,0,35.365,1Zm0,54.474A20.108,20.108,0,1,1,55.474,35.365,20.117,20.117,0,0,1,35.365,55.474Z" transform="translate(-1 -1)" fill="url(#linear-gradient)"/>
      <path id="Path_351" data-name="Path 351" d="M72.485,74.064H62.732A1.546,1.546,0,0,1,61.2,72.531v-9.8A1.546,1.546,0,0,1,62.732,61.2h9.8a1.546,1.546,0,0,1,1.533,1.533v9.8A1.556,1.556,0,0,1,72.485,74.064Z" transform="translate(-33.243 -33.243)" fill="#2059eb"/>
    </g>
  </g>
</svg>
