
<svg xmlns="http://www.w3.org/2000/svg" width="24.194" height="24.194" viewBox="0 0 24.194 24.194">
  <path id="Icon_awesome-times-circle" data-name="Icon awesome-times-circle" d="M12.332.234a12.1,12.1,0,1,0,12.1,12.1A12.1,12.1,0,0,0,12.332.234Zm5.932,15.273a.586.586,0,0,1,0,.829l-1.932,1.927a.586.586,0,0,1-.829,0l-3.171-3.2-3.176,3.2a.586.586,0,0,1-.829,0L6.4,16.331a.586.586,0,0,1,0-.829l3.2-3.171L6.4,9.156a.586.586,0,0,1,0-.829L8.332,6.4a.586.586,0,0,1,.829,0l3.171,3.2,3.176-3.2a.586.586,0,0,1,.829,0l1.932,1.932a.586.586,0,0,1,0,.829l-3.2,3.171Z" transform="translate(-0.234 -0.234)" fill="#898d96"/>
</svg>
