<svg xmlns="http://www.w3.org/2000/svg" width="24.195" height="24.194" viewBox="0 0 24.195 24.194">
  <g id="Group_316" data-name="Group 316" transform="translate(0 24.194) rotate(-90)">
    <path id="Icon_awesome-chevron-circle-down" data-name="Icon awesome-chevron-circle-down" d="M24.195,12.1A12.1,12.1,0,1,1,12.1,0,12.1,12.1,0,0,1,24.195,12.1Z" transform="translate(0)" fill="#fff"/>
    <path id="Icon_awesome-chevron-circle-down-2" data-name="Icon awesome-chevron-circle-down" d="M8.612,9.436l6.61-6.61a1.166,1.166,0,0,0,0-1.654L14.392.344a1.166,1.166,0,0,0-1.654,0L7.783,5.3,2.827.344a1.166,1.166,0,0,0-1.654,0l-.829.829a1.166,1.166,0,0,0,0,1.654l6.61,6.61A1.172,1.172,0,0,0,8.612,9.436Z" transform="translate(4.315 8.207)" fill="#617bff"/>
  </g>
</svg>
