<svg xmlns="http://www.w3.org/2000/svg" width="24.195" height="24.195" viewBox="0 0 24.195 24.195">
  <g id="Group_52" data-name="Group 52" transform="translate(-1403.478 -1205.403)">
    <path id="Icon_awesome-chevron-circle-down" data-name="Icon awesome-chevron-circle-down" d="M24.757,12.66A12.1,12.1,0,1,1,12.66.563,12.1,12.1,0,0,1,24.757,12.66Z" transform="translate(1402.915 1204.84)" fill="#617bff"/>
    <path id="Icon_awesome-chevron-circle-down-2" data-name="Icon awesome-chevron-circle-down" d="M13.489,18.216l6.61-6.61a1.166,1.166,0,0,0,0-1.654l-.829-.829a1.166,1.166,0,0,0-1.654,0L12.66,14.079,7.7,9.123a1.166,1.166,0,0,0-1.654,0l-.829.829a1.166,1.166,0,0,0,0,1.654l6.61,6.61A1.172,1.172,0,0,0,13.489,18.216Z" transform="translate(1402.915 1204.831)"/>
  </g>
</svg>
