
<svg xmlns="http://www.w3.org/2000/svg" width="70.006" height="69.981" viewBox="0 0 70.006 69.981">
  <g id="Group_665" data-name="Group 665" transform="translate(-900 -4308.999)">
    <path id="Path_482" data-name="Path 482" d="M15.948,29.97a2.144,2.144,0,0,0,3.031.069q.036-.034.069-.069L32.272,16.321a9.8,9.8,0,0,0-.293-13.856q-.184-.177-.378-.344a9.347,9.347,0,0,0-12.753.93L17.5,4.435,16.153,3.049A9.349,9.349,0,0,0,3.4,2.119,9.815,9.815,0,0,0,2.393,15.963q.156.181.323.356Z" transform="translate(900 4309)" fill="#fc3aaa"/>
    <path id="Path_483" data-name="Path 483" d="M35.625,43.709H29.062l-.968-1.947a3.745,3.745,0,0,0-3.508-2.431h-9.8a3.745,3.745,0,0,0-3.508,2.431l-.957,1.947H3.754A3.753,3.753,0,0,0,0,47.461V66.228a3.751,3.751,0,0,0,3.75,3.753H35.625a3.753,3.753,0,0,0,3.75-3.753V47.463a3.753,3.753,0,0,0-3.75-3.754M19.688,63.965A7.109,7.109,0,1,1,26.8,56.856a7.109,7.109,0,0,1-7.112,7.109Z" transform="translate(900 4309)" fill="#617bff"/>
    <path id="Path_484" data-name="Path 484" d="M68.278,48.119H59.995l3.057-6.938c.287-.909-.537-1.806-1.665-1.806H51.052a1.654,1.654,0,0,0-1.709,1.244l-2.3,14.619a1.555,1.555,0,0,0,1.474,1.632,1.537,1.537,0,0,0,.235-.006h8.519L53.966,68.212c-.258.909.574,1.764,1.672,1.764a1.815,1.815,0,0,0,1.493-.718L69.763,50.266c.667-.945-.159-2.146-1.486-2.146Z" transform="translate(900 4309)" fill="#fbee00"/>
    <path id="Path_485" data-name="Path 485" d="M65.363.026,45.05,3.149a4.282,4.282,0,0,0-3.487,4.332v14.6a11.4,11.4,0,0,0-2.187-.232c-4.833,0-8.75,2.937-8.75,6.563s3.917,6.563,8.75,6.563c4.813,0,8.713-2.915,8.75-6.516V13.606l15.313-2.354V17.7a11.4,11.4,0,0,0-2.187-.232c-4.833,0-8.75,2.937-8.75,6.563s3.917,6.563,8.75,6.563c4.812,0,8.713-2.915,8.75-6.516V4.356A4.177,4.177,0,0,0,65.363.026" transform="translate(900 4309)" fill="#8ff3c8"/>
  </g>
</svg>
