<svg xmlns="http://www.w3.org/2000/svg" width="65.041" height="60.369" viewBox="0 0 65.041 60.369">
  <g id="MetaMask_Fox" transform="translate(0.5 0.5)">
    <path id="Path_321" data-name="Path 321" d="M199.588,35.5,174.6,54.059l4.621-10.95Z" transform="translate(-138.737 -35.5)" fill="#e2761b" stroke="#e2761b" stroke-linecap="round" stroke-linejoin="round" stroke-width="1"/>
    <g id="Group_330" data-name="Group 330" transform="translate(0.527 0)">
      <path id="Path_322" data-name="Path 322" d="M44.4,35.5,69.187,54.235,64.793,43.11Z" transform="translate(-41.763 -35.5)" fill="#e4761b" stroke="#e4761b" stroke-linecap="round" stroke-linejoin="round" stroke-width="1"/>
      <path id="Path_323" data-name="Path 323" d="M218.455,206.8,211.8,217l14.24,3.918,4.094-13.888Z" transform="translate(-167.122 -163.78)" fill="#e4761b" stroke="#e4761b" stroke-linecap="round" stroke-linejoin="round" stroke-width="1"/>
      <path id="Path_324" data-name="Path 324" d="M33.9,207.026l4.068,13.888L52.208,217l-6.655-10.2Z" transform="translate(-33.9 -163.78)" fill="#e4761b" stroke="#e4761b" stroke-linecap="round" stroke-linejoin="round" stroke-width="1"/>
      <path id="Path_325" data-name="Path 325" d="M91.768,112.664l-3.968,6,14.139.628-.5-15.194Z" transform="translate(-74.264 -86.872)" fill="#e4761b" stroke="#e4761b" stroke-linecap="round" stroke-linejoin="round" stroke-width="1"/>
      <path id="Path_326" data-name="Path 326" d="M184.721,112.14l-9.794-8.74-.326,15.37,14.114-.628Z" transform="translate(-139.265 -86.348)" fill="#e4761b" stroke="#e4761b" stroke-linecap="round" stroke-linejoin="round" stroke-width="1"/>
      <path id="Path_327" data-name="Path 327" d="M106.8,217.97l8.489-4.144-7.333-5.726Z" transform="translate(-88.492 -164.753)" fill="#e4761b" stroke="#e4761b" stroke-linecap="round" stroke-linejoin="round" stroke-width="1"/>
      <path id="Path_328" data-name="Path 328" d="M177.9,213.826l8.514,4.144-1.18-9.87Z" transform="translate(-141.736 -164.753)" fill="#e4761b" stroke="#e4761b" stroke-linecap="round" stroke-linejoin="round" stroke-width="1"/>
    </g>
    <g id="Group_331" data-name="Group 331" transform="translate(18.835 49.073)">
      <path id="Path_329" data-name="Path 329" d="M186.414,235.044,177.9,230.9l.678,5.55-.075,2.336Z" transform="translate(-160.044 -230.9)" fill="#d7c1b3" stroke="#d7c1b3" stroke-linecap="round" stroke-linejoin="round" stroke-width="1"/>
      <path id="Path_330" data-name="Path 330" d="M106.8,235.044l7.911,3.742-.05-2.336.628-5.55Z" transform="translate(-106.8 -230.9)" fill="#d7c1b3" stroke="#d7c1b3" stroke-linecap="round" stroke-linejoin="round" stroke-width="1"/>
    </g>
    <path id="Path_331" data-name="Path 331" d="M117.682,180.47l-7.082-2.084,5-2.285Z" transform="translate(-90.81 -140.79)" fill="#233447" stroke="#233447" stroke-linecap="round" stroke-linejoin="round" stroke-width="1"/>
    <path id="Path_332" data-name="Path 332" d="M179.7,180.47l2.084-4.37,5.023,2.285Z" transform="translate(-142.556 -140.79)" fill="#233447" stroke="#233447" stroke-linecap="round" stroke-linejoin="round" stroke-width="1"/>
    <g id="Group_332" data-name="Group 332" transform="translate(12.18 31.794)">
      <path id="Path_333" data-name="Path 333" d="M86.955,217l1.205-10.2-7.861.226Z" transform="translate(-80.3 -195.574)" fill="#cd6116" stroke="#cd6116" stroke-linecap="round" stroke-linejoin="round" stroke-width="1"/>
      <path id="Path_334" data-name="Path 334" d="M207,206.8l1.206,10.2,6.655-9.97Z" transform="translate(-175.181 -195.574)" fill="#cd6116" stroke="#cd6116" stroke-linecap="round" stroke-linejoin="round" stroke-width="1"/>
      <path id="Path_335" data-name="Path 335" d="M188.714,162.1l-14.114.628,1.306,7.258,2.084-4.37,5.023,2.285Z" transform="translate(-150.918 -162.1)" fill="#cd6116" stroke="#cd6116" stroke-linecap="round" stroke-linejoin="round" stroke-width="1"/>
      <path id="Path_336" data-name="Path 336" d="M93.526,167.9l5.023-2.285,2.059,4.37,1.331-7.258L87.8,162.1Z" transform="translate(-85.916 -162.1)" fill="#cd6116" stroke="#cd6116" stroke-linecap="round" stroke-linejoin="round" stroke-width="1"/>
    </g>
    <g id="Group_333" data-name="Group 333" transform="translate(14.064 31.794)">
      <path id="Path_337" data-name="Path 337" d="M87.8,162.1l5.927,11.552-.2-5.751Z" transform="translate(-87.8 -162.1)" fill="#e4751f" stroke="#e4751f" stroke-linecap="round" stroke-linejoin="round" stroke-width="1"/>
      <path id="Path_338" data-name="Path 338" d="M207.351,167.9l-.251,5.751,5.952-11.552Z" transform="translate(-177.139 -162.1)" fill="#e4751f" stroke="#e4751f" stroke-linecap="round" stroke-linejoin="round" stroke-width="1"/>
      <path id="Path_339" data-name="Path 339" d="M140.131,164.6l-1.331,7.258,1.658,8.564.377-11.276Z" transform="translate(-125.992 -163.972)" fill="#e4751f" stroke="#e4751f" stroke-linecap="round" stroke-linejoin="round" stroke-width="1"/>
      <path id="Path_340" data-name="Path 340" d="M172.578,164.6l-.678,4.521.3,11.3,1.683-8.564Z" transform="translate(-150.779 -163.972)" fill="#e4751f" stroke="#e4751f" stroke-linecap="round" stroke-linejoin="round" stroke-width="1"/>
    </g>
    <path id="Path_341" data-name="Path 341" d="M174.783,187.284l-1.683,8.564,1.205.829,7.333-5.726.251-5.751Z" transform="translate(-137.614 -147.604)" fill="#f6851b" stroke="#f6851b" stroke-linecap="round" stroke-linejoin="round" stroke-width="1"/>
    <path id="Path_342" data-name="Path 342" d="M110.6,185.2l.2,5.751,7.333,5.726,1.205-.829-1.658-8.564Z" transform="translate(-90.81 -147.604)" fill="#f6851b" stroke="#f6851b" stroke-linecap="round" stroke-linejoin="round" stroke-width="1"/>
    <path id="Path_343" data-name="Path 343" d="M125.259,251.142l.075-2.336-.628-.553h-9.468l-.578.553.05,2.336L106.8,247.4l2.763,2.26,5.6,3.893h9.619l5.626-3.893,2.763-2.26Z" transform="translate(-87.965 -194.184)" fill="#c0ad9e" stroke="#c0ad9e" stroke-linecap="round" stroke-linejoin="round" stroke-width="1"/>
    <path id="Path_344" data-name="Path 344" d="M148.1,228.429l-1.205-.829h-6.957l-1.205.829-.628,5.55.578-.553h9.468l.628.553Z" transform="translate(-111.404 -179.356)" fill="#161616" stroke="#161616" stroke-linecap="round" stroke-linejoin="round" stroke-width="1"/>
    <g id="Group_334" data-name="Group 334" transform="translate(0 0)">
      <path id="Path_345" data-name="Path 345" d="M203.114,55.265l2.135-10.246L202.06,35.5,177.9,53.431l9.292,7.861,13.135,3.842,2.913-3.39-1.256-.9,2.009-1.833L202.436,57.8l2.009-1.532Z" transform="translate(-141.209 -35.5)" fill="#763d16" stroke="#763d16" stroke-linecap="round" stroke-linejoin="round" stroke-width="1"/>
      <path id="Path_346" data-name="Path 346" d="M31.8,45.018l2.135,10.246-1.356,1L34.588,57.8l-1.532,1.205,2.009,1.833-1.256.9,2.888,3.39,13.135-3.842,9.292-7.861L34.964,35.5Z" transform="translate(-31.8 -35.5)" fill="#763d16" stroke="#763d16" stroke-linecap="round" stroke-linejoin="round" stroke-width="1"/>
    </g>
    <path id="Path_347" data-name="Path 347" d="M222.193,142.042,209.059,138.2l3.993,6L207.1,155.755l7.836-.1h11.678Z" transform="translate(-163.075 -112.408)" fill="#f6851b" stroke="#f6851b" stroke-linecap="round" stroke-linejoin="round" stroke-width="1"/>
    <path id="Path_348" data-name="Path 348" d="M51.4,138.2,38.27,142.042,33.9,155.654H45.553l7.81.1L47.436,144.2Z" transform="translate(-33.373 -112.408)" fill="#f6851b" stroke="#f6851b" stroke-linecap="round" stroke-linejoin="round" stroke-width="1"/>
    <path id="Path_349" data-name="Path 349" d="M137.906,90.613l.829-14.491L142.552,65.8H125.6l3.767,10.322.879,14.491.3,4.571.025,11.251h6.957l.05-11.251Z" transform="translate(-102.043 -58.19)" fill="#f6851b" stroke="#f6851b" stroke-linecap="round" stroke-linejoin="round" stroke-width="1"/>
  </g>
</svg>
