<svg xmlns="http://www.w3.org/2000/svg" width="21.001" height="21.001" viewBox="0 0 21.001 21.001">
  <g id="Сгруппировать_21" data-name="Сгруппировать 21" transform="translate(-4136 -461)">
    <g id="Gear" transform="translate(4133.463 458.463)">
      <path id="Контур_6" data-name="Контур 6" d="M13.505,17.01A3.505,3.505,0,1,0,10,13.505,3.505,3.505,0,0,0,13.505,17.01Z" transform="translate(-0.468 -0.468)" fill="none" stroke="#fc3aaa" stroke-linecap="round" stroke-linejoin="round" stroke-width="2"/>
      <path id="Контур_7" data-name="Контур 7" d="M21.422,12.275,22.4,10.8a.78.78,0,0,0,.1-.654,9.828,9.828,0,0,0-.729-1.763.776.776,0,0,0-.534-.389L19.5,7.647,18.427,6.569l-.348-1.738A.776.776,0,0,0,17.69,4.3a9.834,9.834,0,0,0-1.764-.729.78.78,0,0,0-.654.1L13.8,4.652H12.275L10.8,3.67a.78.78,0,0,0-.654-.1A9.833,9.833,0,0,0,8.384,4.3a.776.776,0,0,0-.389.534L7.647,6.569,6.569,7.647l-1.738.347a.776.776,0,0,0-.534.389,9.834,9.834,0,0,0-.729,1.764.78.78,0,0,0,.1.654l.982,1.473V13.8L3.67,15.272a.78.78,0,0,0-.1.654A9.83,9.83,0,0,0,4.3,17.69a.776.776,0,0,0,.534.389l1.738.348L7.647,19.5l.347,1.738a.776.776,0,0,0,.389.534,9.832,9.832,0,0,0,1.764.729.779.779,0,0,0,.654-.1l1.473-.982H13.8l1.473.982a.78.78,0,0,0,.654.1,9.831,9.831,0,0,0,1.763-.729.776.776,0,0,0,.389-.534l.348-1.738L19.5,18.427l1.738-.348a.776.776,0,0,0,.534-.389,9.832,9.832,0,0,0,.729-1.763.78.78,0,0,0-.1-.654L21.422,13.8Z" transform="translate(0 0)" fill="none" stroke="#fc3aaa" stroke-linecap="round" stroke-linejoin="round" stroke-width="2"/>
    </g>
    <rect id="Прямоугольник_24" data-name="Прямоугольник 24" width="19" height="19" transform="translate(4137 462)" fill="none"/>
  </g>
</svg>
