<svg id="SignOut" xmlns="http://www.w3.org/2000/svg" width="19" height="19" viewBox="0 0 19 19">
  <path id="Контур_19" data-name="Контур 19" d="M332.45,264.348l-4.177-4.156a.8.8,0,0,0-1.125,0,.789.789,0,0,0,0,1.12l2.819,2.8h-9.22a.792.792,0,1,0,0,1.583h9.22l-2.819,2.8a.794.794,0,0,0,1.125,1.12l4.177-4.156a.789.789,0,0,0,0-1.12Z" transform="translate(-313.683 -255.408)" fill="#fc3aaa"/>
  <path id="Контур_20" data-name="Контур 20" d="M115.4,124.067h-7.16V108.234h7.16a.792.792,0,1,0,0-1.583h-7.16a1.589,1.589,0,0,0-1.591,1.583v15.833a1.589,1.589,0,0,0,1.591,1.583h7.16a.792.792,0,1,0,0-1.583Z" transform="translate(-106.65 -106.65)" fill="#fc3aaa"/>
</svg>
