<svg xmlns="http://www.w3.org/2000/svg" width="19" height="19" viewBox="0 0 19 19">
  <g id="Сгруппировать_26" data-name="Сгруппировать 26" transform="translate(-8471 -581)">
    <path id="Account_balance_wallet" data-name="Account balance wallet" d="M30,27v1a2.006,2.006,0,0,1-2,2H14a2,2,0,0,1-2-2V14a2,2,0,0,1,2-2H28a2.006,2.006,0,0,1,2,2v1H21a2,2,0,0,0-2,2v8a2,2,0,0,0,2,2Zm-9-2H31V17H21Zm4-2.5A1.5,1.5,0,1,1,26.5,21,1.5,1.5,0,0,1,25,22.5Z" transform="translate(8459 570)" fill="#fc3aaa"/>
    <rect id="Прямоугольник_29" data-name="Прямоугольник 29" width="19" height="19" transform="translate(8471 581)" fill="none"/>
  </g>
</svg>
