
<svg xmlns="http://www.w3.org/2000/svg" width="96.866" height="59.37" viewBox="0 0 96.866 59.37">
  <path id="walletconnect.7de769ce1ae236e10c32061c14b483f6" d="M19.868,11.94a41.064,41.064,0,0,1,57.205,0l1.9,1.862a1.951,1.951,0,0,1,0,2.8l-6.5,6.368a1.027,1.027,0,0,1-1.43,0l-2.616-2.561a28.647,28.647,0,0,0-39.908,0l-2.8,2.743a1.027,1.027,0,0,1-1.43,0l-6.5-6.368a1.951,1.951,0,0,1,0-2.8l2.086-2.043ZM90.523,25.108l5.788,5.667a1.951,1.951,0,0,1,0,2.8L70.213,59.13a2.053,2.053,0,0,1-2.86,0L48.829,40.993a.514.514,0,0,0-.715,0L29.59,59.13a2.054,2.054,0,0,1-2.861,0L.63,33.576a1.951,1.951,0,0,1,0-2.8l5.788-5.667a2.053,2.053,0,0,1,2.86,0L27.8,43.245a.514.514,0,0,0,.715,0L47.04,25.108a2.053,2.053,0,0,1,2.86,0L68.424,43.245a.514.514,0,0,0,.715,0L87.663,25.108A2.053,2.053,0,0,1,90.523,25.108Z" transform="translate(-0.038 -0.34)" fill="#3b99fc"/>
</svg>
