<svg xmlns="http://www.w3.org/2000/svg" width="19" height="19" viewBox="0 0 19 19">
  <g id="_37fb5f705c17ecad2cbba32e0751f52a" data-name="37fb5f705c17ecad2cbba32e0751f52a" transform="translate(-10 -10)">
    <g id="Сгруппировать_230" data-name="Сгруппировать 230" transform="translate(10 10)">
      <path id="Контур_53" data-name="Контур 53" d="M17.125,17.124c3.934,0,7.125-1.6,7.125-3.563S21.059,10,17.125,10,10,11.6,10,13.563,13.189,17.124,17.125,17.124Zm.983-3.049a10.5,10.5,0,0,0-1.332-.24c-.618-.085-1.1-.173-1.45-.256a2.512,2.512,0,0,1-.849-.351.646.646,0,0,1-.324-.527q0-.4.582-.711a4.569,4.569,0,0,1,1.83-.386v-.415h1.124V11.6a3.129,3.129,0,0,1,2.439.853l-1.549.256a1.754,1.754,0,0,0-1.4-.523,2.093,2.093,0,0,0-.766.116c-.192.078-.287.173-.287.285s.093.2.279.26a9.082,9.082,0,0,0,1.19.225c.669.1,1.192.19,1.57.275a2.764,2.764,0,0,1,.911.359.653.653,0,0,1,.339.535c0,.316-.235.576-.7.787a5.732,5.732,0,0,1-2.024.37v.537H16.567V15.4q-2.21-.09-2.734-1.026l1.739-.18q.244.587,1.6.587a2.59,2.59,0,0,0,.936-.126c.2-.083.3-.186.3-.3S18.308,14.137,18.108,14.075ZM10,15.938a1.817,1.817,0,0,1,.114-.616c1.208,1.425,3.856,2.4,7.011,2.4a14.129,14.129,0,0,0,2.561-.235,6.549,6.549,0,0,0-2.082,2c-.161,0-.318.012-.477.012C13.189,19.5,10,17.9,10,15.938Zm14.25,0a1.837,1.837,0,0,1-.138.686,6.458,6.458,0,0,0-1.051-.093c-.194,0-.386.014-.576.029a5.476,5.476,0,0,0,1.65-1.239A1.865,1.865,0,0,1,24.25,15.938ZM19.832,28.731A13.586,13.586,0,0,1,17.125,29C13.189,29,10,27.4,10,25.437a1.817,1.817,0,0,1,.114-.616c1.208,1.425,3.856,2.4,7.011,2.4.3,0,.589-.016.876-.033A6.6,6.6,0,0,0,19.832,28.731ZM10,23.062a1.817,1.817,0,0,1,.114-.616c1.165,1.373,3.67,2.315,6.667,2.384a6.389,6.389,0,0,0,.807,1.782c-.155,0-.308.012-.463.012C13.189,26.623,10,25.028,10,23.062Zm0-2.375a1.817,1.817,0,0,1,.114-.616c1.136,1.34,3.548,2.266,6.448,2.377-.019.2-.031.409-.031.616a6.742,6.742,0,0,0,.111,1.177C12.933,24.111,10,22.572,10,20.687Zm0-2.375a1.817,1.817,0,0,1,.114-.616c1.208,1.427,3.856,2.4,7.011,2.4.045,0,.085,0,.13,0a6.377,6.377,0,0,0-.607,1.774C12.937,21.738,10,20.2,10,18.313Zm13.063-1.188A5.938,5.938,0,1,0,29,23.062,5.937,5.937,0,0,0,23.063,17.124ZM25.136,26a2.423,2.423,0,0,1-1.621.741V27.81h-.9V26.742a2.355,2.355,0,0,1-2.185-2.053l1.39-.363A1.213,1.213,0,0,0,23.1,25.5a.987.987,0,0,0,.746-.252.846.846,0,0,0,.24-.607.671.671,0,0,0-.24-.558,4.3,4.3,0,0,0-1.064-.483,6.049,6.049,0,0,1-1.159-.51,1.919,1.919,0,0,1-.679-.7,2.1,2.1,0,0,1-.26-1.055,2.334,2.334,0,0,1,.465-1.421,2.087,2.087,0,0,1,1.464-.772v-.83h.9v.83a2.173,2.173,0,0,1,1.952,1.706l-1.239.51c-.24-.7-.615-1.047-1.123-1.047a.817.817,0,0,0-.611.235.776.776,0,0,0-.233.566.633.633,0,0,0,.223.521,3.863,3.863,0,0,0,.95.448,8.27,8.27,0,0,1,1.256.552,2,2,0,0,1,.731.719,2.092,2.092,0,0,1,.271,1.072A2.267,2.267,0,0,1,25.136,26Z" transform="translate(-10 -10)" fill="#617BFF"/>
    </g>
  </g>
</svg>
