<svg xmlns="http://www.w3.org/2000/svg" width="156" height="160" viewBox="0 0 156 160">
  <g id="Social_02" data-name="Social 02" transform="translate(-29.48 -27.574)">
    <path id="Контур_57" data-name="Контур 57" d="M45.9,97.6s27.455-1.093,33.388-45.969c5.269-39.854,51.565-21.714,64.948-5.827,17.336,20.58,8.095,55.982,30.521,60.454s7.782,54.2-26.26,49.437c-42.346-5.92-32.1,18.685-44.814,29.1-9.123,7.475-46.532.28-47.779-26.853-1.049-22.833-10.735-22.76-17.6-25.349C28.4,128.863,22.161,101.821,45.9,97.6Z" transform="translate(0 0)" fill="#291320"/>
    <path id="Контур_58" data-name="Контур 58" d="M170.956,186.667l-26.818-26.5-5.311,5.374,26.818,26.5Z" transform="translate(-31.798 -39.226)" fill="#be207b"/>
    <path id="Контур_59" data-name="Контур 59" d="M186.711,199.218,165.847,178.6a.3.3,0,0,0-.418,0l-7.9,7.992a.3.3,0,0,0,0,.418L178.4,207.63a.3.3,0,0,0,.418,0l7.9-7.992A.3.3,0,0,0,186.711,199.218Z" transform="translate(-37.227 -44.654)" fill="#fc3aaa"/>
    <path id="Контур_60" data-name="Контур 60" d="M98.568,151.011A33.406,33.406,0,1,0,65.161,117.6,33.406,33.406,0,0,0,98.568,151.011Z" transform="translate(-10.304 -16.749)" fill="#fc3aaa"/>
    <path id="Контур_61" data-name="Контур 61" d="M100.859,147.852A27.956,27.956,0,1,0,72.9,119.9,27.956,27.956,0,0,0,100.859,147.852Z" transform="translate(-12.574 -19.04)" fill="#291320"/>
    <path id="Контур_62" data-name="Контур 62" d="M184.6,88.446a14.969,14.969,0,1,0,9.624,18.854A14.985,14.985,0,0,0,184.6,88.446Zm-2.365,7.295a4.654,4.654,0,1,1-5.853,2.961A4.656,4.656,0,0,1,182.232,95.741Zm-5.916,18.253a11.8,11.8,0,0,1-6.31-4.861,10.208,10.208,0,0,1,8.261-1.16,10.039,10.039,0,0,1,6.01,5.785A11.794,11.794,0,0,1,176.316,113.994Z" transform="translate(-39.425 -17.792)" fill="#fc3aaa"/>
    <path id="Контур_63" data-name="Контур 63" d="M98.42,189.822a7.735,7.735,0,1,0,5.894-.465A7.73,7.73,0,0,0,98.42,189.822Zm1.8,3.526a2.409,2.409,0,1,1-1.188,1.391,2.4,2.4,0,0,1,1.188-1.391Zm4.5,8.822a6.088,6.088,0,0,1-4.077.528,5.266,5.266,0,0,1,2.592-3.438,5.18,5.18,0,0,1,4.305-.082,6.086,6.086,0,0,1-2.82,2.991Z" transform="translate(-18.862 -47.751)" fill="#fc3aaa"/>
  </g>
</svg>
