<svg xmlns="http://www.w3.org/2000/svg" width="23" height="23" viewBox="0 0 23 23">
  <g id="Group_369" data-name="Group 369" transform="translate(23) rotate(90)">
    <path id="Icon_awesome-chevron-circle-down" data-name="Icon awesome-chevron-circle-down" d="M23,11.5A11.5,11.5,0,1,1,11.5,0,11.5,11.5,0,0,1,23,11.5Z" fill="#282829"/>
    <path id="Icon_awesome-chevron-circle-down-2" data-name="Icon awesome-chevron-circle-down" d="M8.191,8.971l6.283-6.283a1.108,1.108,0,0,0,0-1.572L13.686.328a1.108,1.108,0,0,0-1.572,0L7.4,5.039,2.691.327a1.108,1.108,0,0,0-1.572,0l-.792.789a1.108,1.108,0,0,0,0,1.572L6.61,8.971a1.114,1.114,0,0,0,1.581,0Z" transform="translate(4.098 7.802)"/>
  </g>
</svg>
