<svg xmlns="http://www.w3.org/2000/svg" width="19" height="19" viewBox="0 0 19 19">
  <g id="SquaresFour" transform="translate(-5.129 -5.802)">
    <path id="Контур_115" data-name="Контур 115" d="M12.94,5.8H6a.868.868,0,0,0-.868.868v6.943A.868.868,0,0,0,6,14.48H12.94a.868.868,0,0,0,.868-.868V6.669A.868.868,0,0,0,12.94,5.8Z" transform="translate(0 0)" fill="#898d96"/>
    <path id="Контур_116" data-name="Контур 116" d="M24.94,5.8H18a.868.868,0,0,0-.868.868v6.943A.868.868,0,0,0,18,14.48H24.94a.868.868,0,0,0,.868-.868V6.669A.868.868,0,0,0,24.94,5.8Z" transform="translate(-1.679 0)" fill="#898d96"/>
    <path id="Контур_117" data-name="Контур 117" d="M12.94,17.8H6a.868.868,0,0,0-.868.868v6.943A.868.868,0,0,0,6,26.48H12.94a.868.868,0,0,0,.868-.868V18.669A.868.868,0,0,0,12.94,17.8Z" transform="translate(0 -1.678)" fill="#898d96"/>
    <path id="Контур_118" data-name="Контур 118" d="M24.94,17.8H18a.868.868,0,0,0-.868.868v6.943A.868.868,0,0,0,18,26.48H24.94a.868.868,0,0,0,.868-.868V18.669A.868.868,0,0,0,24.94,17.8Z" transform="translate(-1.679 -1.678)" fill="#898d96"/>
  </g>
</svg>
