<svg xmlns="http://www.w3.org/2000/svg" width="19" height="19" viewBox="0 0 19 19">
  <g id="SquaresFour-1" transform="translate(-5 -5)">
    <path id="Контур_102" data-name="Контур 102" d="M9.683,5H5.52A.52.52,0,0,0,5,5.52V9.683a.52.52,0,0,0,.52.52H9.683a.52.52,0,0,0,.52-.52V5.52A.52.52,0,0,0,9.683,5Z" transform="translate(0 0)" fill="#898d96"/>
    <path id="Контур_103" data-name="Контур 103" d="M17.683,5H13.52a.52.52,0,0,0-.52.52V9.683a.52.52,0,0,0,.52.52h4.162a.52.52,0,0,0,.52-.52V5.52A.52.52,0,0,0,17.683,5Z" transform="translate(-1.101 0)" fill="#898d96"/>
    <path id="Контур_104" data-name="Контур 104" d="M25.683,5H21.52a.52.52,0,0,0-.52.52V9.683a.52.52,0,0,0,.52.52h4.162a.52.52,0,0,0,.52-.52V5.52A.52.52,0,0,0,25.683,5Z" transform="translate(-2.203 0)" fill="#898d96"/>
    <path id="Контур_105" data-name="Контур 105" d="M9.683,13H5.52a.52.52,0,0,0-.52.52v4.162a.52.52,0,0,0,.52.52H9.683a.52.52,0,0,0,.52-.52V13.52A.52.52,0,0,0,9.683,13Z" transform="translate(0 -1.101)" fill="#898d96"/>
    <path id="Контур_106" data-name="Контур 106" d="M17.683,13H13.52a.52.52,0,0,0-.52.52v4.162a.52.52,0,0,0,.52.52h4.162a.52.52,0,0,0,.52-.52V13.52A.52.52,0,0,0,17.683,13Z" transform="translate(-1.101 -1.101)" fill="#898d96"/>
    <path id="Контур_107" data-name="Контур 107" d="M25.683,13H21.52a.52.52,0,0,0-.52.52v4.162a.52.52,0,0,0,.52.52h4.162a.52.52,0,0,0,.52-.52V13.52A.52.52,0,0,0,25.683,13Z" transform="translate(-2.203 -1.101)" fill="#898d96"/>
    <path id="Контур_108" data-name="Контур 108" d="M9.683,21H5.52a.52.52,0,0,0-.52.52v4.162a.52.52,0,0,0,.52.52H9.683a.52.52,0,0,0,.52-.52V21.52A.52.52,0,0,0,9.683,21Z" transform="translate(0 -2.203)" fill="#898d96"/>
    <path id="Контур_109" data-name="Контур 109" d="M17.683,21H13.52a.52.52,0,0,0-.52.52v4.162a.52.52,0,0,0,.52.52h4.162a.52.52,0,0,0,.52-.52V21.52A.52.52,0,0,0,17.683,21Z" transform="translate(-1.101 -2.203)" fill="#898d96"/>
    <path id="Контур_110" data-name="Контур 110" d="M25.683,21H21.52a.52.52,0,0,0-.52.52v4.162a.52.52,0,0,0,.52.52h4.162a.52.52,0,0,0,.52-.52V21.52A.52.52,0,0,0,25.683,21Z" transform="translate(-2.203 -2.203)" fill="#898d96"/>
  </g>
</svg>
