<svg xmlns="http://www.w3.org/2000/svg" width="19" height="19" viewBox="0 0 19 19">
  <g id="Сгруппировать_70" data-name="Сгруппировать 70" transform="translate(-499 -549)">
    <path id="ShoppingCart" d="M17.9,12.905l1.079-6a1.344,1.344,0,0,0-.285-1.093,1.321,1.321,0,0,0-.454-.353,1.308,1.308,0,0,0-.559-.126H3.849l-.4-2.238a1.336,1.336,0,0,0-.453-.785A1.31,1.31,0,0,0,2.148,2H.66a.656.656,0,0,0-.466.2.672.672,0,0,0,0,.943.656.656,0,0,0,.466.2H2.148l2.2,12.238a1.343,1.343,0,0,0,.1.314,2.349,2.349,0,0,0-.117,3.457,2.294,2.294,0,0,0,3.416-.226,2.353,2.353,0,0,0,.276-2.45h5.724a2.35,2.35,0,0,0,.555,2.746,2.29,2.29,0,0,0,2.765.225,2.328,2.328,0,0,0,.925-1.145,2.348,2.348,0,0,0-.772-2.692,2.293,2.293,0,0,0-1.387-.468H5.648L5.408,14H16.6a1.311,1.311,0,0,0,.846-.309A1.336,1.336,0,0,0,17.9,12.905Z" transform="translate(499 548)" fill="#fff"/>
    <rect id="Прямоугольник_45" data-name="Прямоугольник 45" width="19" height="19" transform="translate(499 549)" fill="none"/>
  </g>
</svg>
