<svg xmlns="http://www.w3.org/2000/svg" width="19" height="19" viewBox="0 0 19 19">
  <g id="Сгруппировать_150" data-name="Сгруппировать 150" transform="translate(-555 -680)">
    <path id="FinnTheHuman" d="M15.571,13.391a1.062,1.062,0,0,1-.172.58,1.024,1.024,0,0,1-.457.384.994.994,0,0,1-.588.059,1.011,1.011,0,0,1-.521-.286,1.053,1.053,0,0,1-.279-.534,1.068,1.068,0,0,1,.058-.6,1.038,1.038,0,0,1,.375-.468,1,1,0,0,1,1.285.13A1.058,1.058,0,0,1,15.571,13.391ZM8.446,12.348a1,1,0,0,0-.566.176,1.038,1.038,0,0,0-.375.468,1.068,1.068,0,0,0-.058.6,1.053,1.053,0,0,0,.279.534,1.011,1.011,0,0,0,.521.286.994.994,0,0,0,.588-.059,1.024,1.024,0,0,0,.457-.384,1.063,1.063,0,0,0-.127-1.317A1.007,1.007,0,0,0,8.446,12.348ZM21,6.783v6.957a6.349,6.349,0,0,1-1.791,4.425A6.039,6.039,0,0,1,14.893,20H8.107a6.039,6.039,0,0,1-4.316-1.836A6.349,6.349,0,0,1,2,13.739V6.783a2.824,2.824,0,0,1,.678-1.839,2.7,2.7,0,0,1,1.695-.921,2.663,2.663,0,0,1,1.865.457,2.783,2.783,0,0,1,1.1,1.607h8.315a2.783,2.783,0,0,1,1.1-1.607,2.663,2.663,0,0,1,1.865-.457,2.7,2.7,0,0,1,1.695.921A2.824,2.824,0,0,1,21,6.783Zm-3.393,6.261a2.844,2.844,0,0,0-.207-1.065,2.787,2.787,0,0,0-.588-.9,2.71,2.71,0,0,0-.881-.6,2.657,2.657,0,0,0-1.039-.212H8.107a2.681,2.681,0,0,0-1.919.815,2.818,2.818,0,0,0-.795,1.968v.7a2.818,2.818,0,0,0,.8,1.968,2.681,2.681,0,0,0,1.919.815h6.786a2.681,2.681,0,0,0,1.919-.815,2.818,2.818,0,0,0,.8-1.968Z" transform="translate(553 678)" fill="#fff"/>
    <rect id="Прямоугольник_51" data-name="Прямоугольник 51" width="19" height="19" transform="translate(555 680)" fill="none"/>
  </g>
</svg>
