<svg xmlns="http://www.w3.org/2000/svg" width="19" height="19" viewBox="0 0 19 19">
  <g id="Сгруппировать_354" data-name="Сгруппировать 354" transform="translate(-1717 -1309)">
    <path id="TelegramLogo" d="M21.044,3.818a1.414,1.414,0,0,0-1.429-.24L3.423,9.862a1.4,1.4,0,0,0-.681.561,1.374,1.374,0,0,0,.149,1.655,1.408,1.408,0,0,0,.77.434l4.113.813V18.4a1.374,1.374,0,0,0,.236.771,1.4,1.4,0,0,0,.63.511,1.416,1.416,0,0,0,1.53-.3l2.276-2.248,3.455,3a1.4,1.4,0,0,0,.923.347,1.432,1.432,0,0,0,.436-.068,1.394,1.394,0,0,0,.605-.381A1.369,1.369,0,0,0,18.2,19.4L21.5,5.179a1.368,1.368,0,0,0-.034-.743A1.383,1.383,0,0,0,21.044,3.818ZM16.828,19.094,9.6,12.81,20.009,5.384Z" transform="translate(1714.468 1306.518)" fill="rgba(255,255,255,0.3)"/>
    <rect id="Прямоугольник_190" data-name="Прямоугольник 190" width="19" height="19" transform="translate(1717 1309)" fill="none"/>
  </g>
</svg>
