<svg id="discord-icon-svgrepo-com" xmlns="http://www.w3.org/2000/svg" width="19" height="15" viewBox="0 0 19 15">
  <path id="Контур_83" data-name="Контур 83" d="M16.095,1.256A15.258,15.258,0,0,0,12.175,0c-.169.311-.366.73-.5,1.063a14.116,14.116,0,0,0-4.344,0A11.461,11.461,0,0,0,6.82,0,15.207,15.207,0,0,0,2.9,1.259,17.023,17.023,0,0,0,.081,12.486,15.559,15.559,0,0,0,4.888,15a12.242,12.242,0,0,0,1.03-1.729,10.042,10.042,0,0,1-1.621-.8c.136-.1.269-.21.4-.321a10.885,10.885,0,0,0,9.612,0c.13.111.263.218.4.321a10.017,10.017,0,0,1-1.624.806A12.188,12.188,0,0,0,14.109,15a15.528,15.528,0,0,0,4.811-2.514A17,17,0,0,0,16.095,1.256ZM6.344,10.226A1.868,1.868,0,0,1,4.636,8.244,1.858,1.858,0,0,1,6.344,6.261,1.846,1.846,0,0,1,8.052,8.244,1.855,1.855,0,0,1,6.344,10.226Zm6.312,0a1.868,1.868,0,0,1-1.708-1.982,1.858,1.858,0,0,1,1.708-1.983,1.846,1.846,0,0,1,1.708,1.983A1.856,1.856,0,0,1,12.656,10.226Z" transform="translate(0)" fill="rgba(255,255,255,0.3)"/>
</svg>
