<svg xmlns="http://www.w3.org/2000/svg" width="19" height="19" viewBox="0 0 19 19">
  <g id="Сгруппировать_355" data-name="Сгруппировать 355" transform="translate(-1692 -1289)">
    <rect id="Прямоугольник_189" data-name="Прямоугольник 189" width="19" height="19" transform="translate(1692 1289)" fill="none"/>
    <g id="MediumLogo" transform="translate(1689.997 1286)">
      <path id="Контур_78" data-name="Контур 78" d="M4.625,12.555V8.941l2.066,3.306a.656.656,0,0,0,1.112,0L9.869,8.941v3.614a.656.656,0,0,0,0,1.311h1.967a.656.656,0,0,0,0-1.311H11.18V7.311h.656a.656.656,0,0,0,0-1.311H10.515l-.038,0-.029,0-.031,0-.034.006-.025.006-.037.01-.023.008-.029.011-.007,0-.025.012-.031.015-.029.018-.024.015-.031.023-.019.015-.028.026-.015.013,0,0-.023.026-.015.016-.005.007L10,6.269,9.974,6.3l-.006.008L7.247,10.663,4.525,6.308,4.52,6.3,4.5,6.269l-.017-.023-.005-.007L4.46,6.222,4.437,6.2l0,0-.014-.013L4.39,6.153l-.019-.015L4.34,6.115,4.316,6.1l-.029-.018-.031-.016-.025-.012-.007,0L4.2,6.041l-.022-.008-.037-.01-.025-.006L4.077,6.01,4.046,6,4.017,6,3.979,6H2.658a.656.656,0,1,0,0,1.311h.656v5.244H2.658a.656.656,0,0,0,0,1.311H4.625a.656.656,0,0,0,0-1.311Z" fill="rgba(255,255,255,0.3)"/>
      <path id="Контур_79" data-name="Контур 79" d="M20.658,13.311h5.9a.656.656,0,0,0,0-1.311h-5.9a.656.656,0,0,0,0,1.311Z" transform="translate(-6.211 -2.104)" fill="rgba(255,255,255,0.3)"/>
      <path id="Контур_80" data-name="Контур 80" d="M26.558,16h-5.9a.656.656,0,0,0,0,1.311h5.9a.656.656,0,0,0,0-1.311Z" transform="translate(-6.211 -3.506)" fill="rgba(255,255,255,0.3)"/>
      <path id="Контур_81" data-name="Контур 81" d="M22.424,20H8.658a.656.656,0,0,0,0,1.311H22.424a.656.656,0,0,0,0-1.311Z" transform="translate(-2.077 -4.909)" fill="rgba(255,255,255,0.3)"/>
      <path id="Контур_82" data-name="Контур 82" d="M22.424,24H8.658a.656.656,0,0,0,0,1.311H22.424a.656.656,0,0,0,0-1.311Z" transform="translate(-2.077 -6.311)" fill="rgba(255,255,255,0.3)"/>
    </g>
  </g>
</svg>
