<svg xmlns="http://www.w3.org/2000/svg" width="19.001" height="21" viewBox="0 0 19.001 21">
  <g id="Сгруппировать_161" data-name="Сгруппировать 161" transform="translate(-21239 -524)">
    <g id="Bell" transform="translate(21234.875 521)"  stroke="#fff">
      <path id="Контур_41" data-name="Контур 41" d="M6.611,10.84a6.666,6.666,0,0,1,.536-2.626A6.821,6.821,0,0,1,8.68,5.989a7.043,7.043,0,0,1,2.3-1.48A7.2,7.2,0,0,1,13.679,4a6.981,6.981,0,0,1,6.962,6.925V11.6a12.488,12.488,0,0,0,1.377,6.456.742.742,0,0,1,0,.761.771.771,0,0,1-.285.28.8.8,0,0,1-.391.1H5.905a.8.8,0,0,1-.391-.1.771.771,0,0,1-.285-.28.742.742,0,0,1,0-.761A12.484,12.484,0,0,0,6.611,11.6Z" transform="translate(0 0)" fill="none" stroke-linecap="round" stroke-linejoin="round" stroke-width="2"/>
      <path id="Контур_42" data-name="Контур 42" d="M12,24v.76a3.041,3.041,0,0,0,6.082,0V24" transform="translate(-1.415 -4.801)" fill="none" stroke-linecap="round" stroke-linejoin="round" stroke-width="2"/>
    </g>
  </g>
</svg>
