<svg xmlns="http://www.w3.org/2000/svg" width="48" height="40" viewBox="0 0 48 40">
  <path id="Image" d="M36.231,18.636h0a2.707,2.707,0,0,1-.811,1.929,2.8,2.8,0,0,1-3.917,0,2.7,2.7,0,0,1,0-3.857,2.8,2.8,0,0,1,3.917,0A2.707,2.707,0,0,1,36.231,18.636ZM51,8.636V41.364a3.613,3.613,0,0,1-1.083,2.57A3.726,3.726,0,0,1,47.308,45H6.692a3.726,3.726,0,0,1-2.61-1.066A3.613,3.613,0,0,1,3,41.364V8.636a3.613,3.613,0,0,1,1.083-2.57A3.726,3.726,0,0,1,6.692,5H47.308a3.725,3.725,0,0,1,2.61,1.066A3.612,3.612,0,0,1,51,8.636Zm-3.69,24.7,0-24.7H6.692V29.7l8.466-8.338a3.737,3.737,0,0,1,5.222,0L30.692,31.52l4.774-4.7a3.737,3.737,0,0,1,5.222,0Z" transform="translate(-3 -5)" fill="rgba(255,255,255,0.3)"/>
</svg>
