<svg xmlns="http://www.w3.org/2000/svg" width="19" height="19" viewBox="0 0 19 19">
  <path id="Icon_Levels" data-name="Icon/Levels" d="M20.927,9.162a1.442,1.442,0,0,0-.467-.7,1.359,1.359,0,0,0-.765-.3L14.658,7.8l-1.869-4.88a1.429,1.429,0,0,0-.509-.665A1.351,1.351,0,0,0,11.5,2h0a1.35,1.35,0,0,0-.78.252,1.429,1.429,0,0,0-.508.664l-1.9,4.908L3.3,8.162a1.359,1.359,0,0,0-.765.3,1.442,1.442,0,0,0-.467.7,1.52,1.52,0,0,0-.017.864,1.474,1.474,0,0,0,.455.725l3.854,3.379L5.216,18.806a1.674,1.674,0,0,0,.042.954,1.612,1.612,0,0,0,.553.763,1.468,1.468,0,0,0,1.7.055l3.976-2.612c.005,0,.011-.007.023,0l4.278,2.811a1.329,1.329,0,0,0,1.544-.049,1.461,1.461,0,0,0,.5-.691,1.516,1.516,0,0,0,.038-.864l-1.218-5.109,3.836-3.312a1.473,1.473,0,0,0,.455-.725A1.52,1.52,0,0,0,20.927,9.162Z" transform="translate(-1.999 -2)" fill="#898d96"/>
</svg>
