<svg xmlns="http://www.w3.org/2000/svg" width="19.005" height="19.005" viewBox="0 0 19.005 19.005">
  <path id="Icon_Stats" data-name="Icon/Stats" d="M5.52,4.791V22.212a.809.809,0,0,1-.223.56.739.739,0,0,1-1.075,0A.809.809,0,0,1,4,22.212V4.791a.809.809,0,0,1,.223-.56.739.739,0,0,1,1.075,0A.809.809,0,0,1,5.52,4.791ZM8.561,12.71h9.122a1.492,1.492,0,0,0,1.074-.464,1.619,1.619,0,0,0,.446-1.119V7.167a1.619,1.619,0,0,0-.446-1.119,1.492,1.492,0,0,0-1.074-.464H8.561a1.492,1.492,0,0,0-1.075.464A1.62,1.62,0,0,0,7.04,7.167v3.959a1.62,1.62,0,0,0,.446,1.119A1.492,1.492,0,0,0,8.561,12.71Zm12.923,1.584H8.561a1.492,1.492,0,0,0-1.075.464,1.62,1.62,0,0,0-.446,1.119v3.959a1.62,1.62,0,0,0,.446,1.119,1.492,1.492,0,0,0,1.075.464H21.484a1.492,1.492,0,0,0,1.074-.464A1.619,1.619,0,0,0,23,19.837V15.878a1.619,1.619,0,0,0-.446-1.119A1.492,1.492,0,0,0,21.484,14.294Z" transform="translate(-3.999 -3.999)" fill="#898d96"/>
</svg>
