<svg xmlns="http://www.w3.org/2000/svg" width="19" height="19" viewBox="0 0 19 19">
  <g id="Icon_Properties" data-name="Icon/Properties" transform="translate(-483 -1083)">
    <path id="File" d="M19.793,8.323,15.026,3.214l-.021-.021-.028-.027-.02-.016-.034-.027-.016-.011-.041-.026-.012-.006-.049-.025-.008,0c-.018-.008-.036-.015-.055-.021l-.008,0c-.018-.006-.037-.011-.056-.015l-.018,0L14.612,3a.629.629,0,0,0-.068,0H6.363a1.32,1.32,0,0,0-.964.429A1.518,1.518,0,0,0,5,4.462V20.538a1.518,1.518,0,0,0,.4,1.033A1.32,1.32,0,0,0,6.363,22H18.635a1.32,1.32,0,0,0,.964-.429,1.518,1.518,0,0,0,.4-1.033V8.86s0-.009,0-.014a.772.772,0,0,0-.054-.284A.732.732,0,0,0,19.793,8.323Zm-5.249.523V4.764l3.808,4.082Z" transform="translate(480.004 1080)" fill="#898d96"/>
    <rect id="Прямоугольник_114" data-name="Прямоугольник 114" width="19" height="19" transform="translate(483 1083)" fill="none"/>
  </g>
</svg>
