<svg xmlns="http://www.w3.org/2000/svg" width="19" height="19" viewBox="0 0 19 19">
  <g id="Icon_Unlockable" data-name="Icon/Unlockable" transform="translate(-561 -1459)">
    <g id="LockKeyOpen" transform="translate(558 1458)">
      <path id="Контур_67" data-name="Контур 67" d="M15.561,18.122A1.061,1.061,0,1,0,14.5,17.061,1.061,1.061,0,0,0,15.561,18.122Z" transform="translate(-3.061 -4.452)" fill="#898d96"/>
      <path id="Контур_68" data-name="Контур 68" d="M19.583,7.333H10.02V4.87a2.455,2.455,0,0,1,.726-1.742,2.491,2.491,0,0,1,3.506,0,2.455,2.455,0,0,1,.726,1.742.7.7,0,0,0,.207.5.712.712,0,0,0,1,0,.7.7,0,0,0,.207-.5,3.858,3.858,0,0,0-1.141-2.737,3.914,3.914,0,0,0-5.51,0A3.857,3.857,0,0,0,8.6,4.87V7.333H5.416a1.423,1.423,0,0,0-1,.413A1.4,1.4,0,0,0,4,8.741v9.852a1.4,1.4,0,0,0,.415.995,1.423,1.423,0,0,0,1,.413H19.583a1.423,1.423,0,0,0,1-.413A1.4,1.4,0,0,0,21,18.593V8.741a1.4,1.4,0,0,0-.415-.995A1.423,1.423,0,0,0,19.583,7.333Zm-6.375,7.638v1.51a.7.7,0,0,1-.207.5.712.712,0,0,1-1,0,.7.7,0,0,1-.207-.5v-1.51a2.477,2.477,0,0,1-1.381-1.035,2.452,2.452,0,0,1,.468-3.188,2.491,2.491,0,0,1,3.243,0,2.458,2.458,0,0,1-.913,4.223Z" fill="#898d96"/>
    </g>
    <rect id="Прямоугольник_113" data-name="Прямоугольник 113" width="19" height="19" transform="translate(561 1459)" fill="none"/>
  </g>
</svg>
