<svg xmlns="http://www.w3.org/2000/svg" width="21.002" stroke="var(--light-grey)" height="19" viewBox="0 0 21.002 19">
  <g id="Сгруппировать_24" data-name="Сгруппировать 24" transform="translate(-4186 -462)">
    <path id="HeartStraight" d="M13.049,21.771l7.426-7.907a5.518,5.518,0,0,0,.367-7.181A4.8,4.8,0,0,0,19.3,5.468a4.5,4.5,0,0,0-3.764-.108,4.752,4.752,0,0,0-1.605,1.126l-1.4,1.486-1.2-1.283A4.732,4.732,0,0,0,4.582,6.3,5.067,5.067,0,0,0,3.44,7.945a5.376,5.376,0,0,0-.1,4.008A5.113,5.113,0,0,0,4.4,13.662l7.616,8.11a.7.7,0,0,0,1.037,0Z" transform="translate(4184 458)" fill="none" stroke-linecap="round" stroke-linejoin="round" stroke-width="2"/>
  </g>
</svg>
