<svg xmlns="http://www.w3.org/2000/svg" width="19" height="19" fill="var(--light-grey)" viewBox="0 0 19 19">
  <g id="Сгруппировать_184" data-name="Сгруппировать 184" transform="translate(-11965 -255)">
    <g id="PaintBucket" transform="translate(11963.586 254.085)">
      <path id="Контур_49" data-name="Контур 49" d="M27.608,18.682a.62.62,0,0,0-.877,0A5.984,5.984,0,0,0,25,22.219a2.17,2.17,0,1,0,4.339,0A5.984,5.984,0,0,0,27.608,18.682Z" transform="translate(-8.925 -6.146)"/>
      <path id="Контур_50" data-name="Контур 50" d="M6.29,3.914a.62.62,0,0,0-.877.877l1.9,1.9.877-.877Z" transform="translate(-1.451 -0.311)"/>
      <path id="Контур_51" data-name="Контур 51" d="M17.678,10.61a1.2,1.2,0,0,0-.094-.468,1.213,1.213,0,0,0-.27-.4L10.736,3.273a1.259,1.259,0,0,0-1.758,0L6.749,5.465l3.408,3.353a1.267,1.267,0,0,1,.8.05,1.242,1.242,0,0,1,.6.52,1.213,1.213,0,0,1-.2,1.484,1.263,1.263,0,0,1-1.508.194,1.234,1.234,0,0,1-.529-.595,1.209,1.209,0,0,1-.051-.789L5.871,6.33,1.778,10.356a1.222,1.222,0,0,0-.269.4,1.2,1.2,0,0,0,0,.936,1.222,1.222,0,0,0,.269.4l6.578,6.472h0a1.259,1.259,0,0,0,1.758,0l7.2-7.083a1.214,1.214,0,0,0,.27-.4A1.2,1.2,0,0,0,17.678,10.61Z" transform="translate(0 0)"/>
    </g>
  </g>
</svg>
